<?xml version="1.0" encoding="utf-8"?>
<!-- Generator: Adobe Illustrator 26.0.3, SVG Export Plug-In . SVG Version: 6.00 Build 0)  -->
<svg version="1.1" id="Layer_1" xmlns="http://www.w3.org/2000/svg" xmlns:xlink="http://www.w3.org/1999/xlink" x="0px" y="0px"
	 viewBox="0 0 428 230.3" style="enable-background:new 0 0 428 230.3;" xml:space="preserve">
<style type="text/css">
	.st0{fill:none;stroke:#8EA7AF;stroke-width:12.0014;stroke-miterlimit:10;}
	.st1{fill:#F4F8F9;stroke:#F4F8F9;stroke-width:1.0393;stroke-miterlimit:10;}
	.st2{fill:none;stroke:#8EA7AF;stroke-width:9.0011;stroke-linecap:round;stroke-miterlimit:10;}
	.st3{fill:none;stroke:#8EA7AF;stroke-width:6.0007;stroke-linecap:round;stroke-miterlimit:10;}
	.st4{fill:#F4F8F9;stroke:#8EA7AF;stroke-width:9.0011;stroke-miterlimit:10;}
	.st5{fill:none;stroke:#8EA7AF;stroke-width:4.8006;stroke-miterlimit:10;}
	.st6{fill:none;stroke:#8EA7AF;stroke-width:4.8006;stroke-linecap:round;stroke-miterlimit:10;}
	.st7{fill:#F4F8F9;}
	.st8{fill:#8EA7AF;stroke:#F4F8F9;stroke-width:1.0393;stroke-miterlimit:10;}
	.st9{enable-background:new    ;}
	.st10{fill:#FFFFFF;}
</style>
<g>
	<g>
		<ellipse class="st0" cx="114" cy="114.2" rx="84.8" ry="86.4"/>
		<ellipse class="st0" cx="114" cy="114.2" rx="99.2" ry="101.1"/>
		<ellipse class="st1" cx="114.3" cy="215.2" rx="3.6" ry="3.7"/>
		<ellipse class="st1" cx="213.3" cy="114" rx="3.6" ry="3.7"/>
		<ellipse class="st1" cx="15" cy="114.2" rx="3.6" ry="3.7"/>
		<ellipse class="st1" cx="184.2" cy="42.6" rx="3.6" ry="3.7"/>
		<ellipse class="st1" cx="43.9" cy="42.8" rx="3.6" ry="3.7"/>
		<line class="st2" x1="133.9" y1="134.8" x2="173.8" y2="175.4"/>
		<path class="st3" d="M29.2,114.2c4.3-0.2,19.3-3.8,19.3-3.8s15.9,4.1,21.3,3.8c5.9-0.3,21.9-7.2,21.9-7.2s16.4,7.3,22.4,7.2
			c5.6-0.2,22.1-5.7,22.1-5.7s17.1,4.2,22.9,4.2c5.9,0,21.9-4.2,21.9-4.2s14.3,3.2,17.8,5.7"/>
		<ellipse class="st4" cx="114" cy="114.2" rx="32.7" ry="33.3"/>
		<ellipse class="st5" cx="115.6" cy="116.1" rx="9.6" ry="5.8"/>
		<line class="st6" x1="108.4" y1="112.2" x2="103.6" y2="104.7"/>
		<line class="st6" x1="123.6" y1="112.4" x2="129.2" y2="104.5"/>
		<line class="st6" x1="123.2" y1="119.7" x2="129.4" y2="126.2"/>
		<line class="st6" x1="116" y1="121.8" x2="116" y2="130.6"/>
		<line class="st6" x1="108.9" y1="120.2" x2="102.7" y2="126.2"/>
		<line class="st6" x1="115.7" y1="110.2" x2="115.7" y2="100.9"/>
		<line class="st6" x1="125.2" y1="116" x2="133.2" y2="116"/>
		<line class="st6" x1="105.9" y1="116" x2="91.6" y2="116"/>
		<path class="st1" d="M98.7,31.8h-1.5c-2,0-3.6-1.6-3.6-3.6V12.4c0-2,1.6-3.6,3.6-3.6h1.5c2,0,3.6,1.6,3.6,3.6v15.7
			C102.3,30.2,100.7,31.8,98.7,31.8z"/>
		<path class="st1" d="M132.5,31.8H131c-2,0-3.6-1.6-3.6-3.6V12.4c0-2,1.6-3.6,3.6-3.6h1.5c2,0,3.6,1.6,3.6,3.6v15.7
			C136,30.2,134.4,31.8,132.5,31.8z"/>
		<path class="st7" d="M106,18.7L106,18.7c-1.4,0-2.5-1.2-2.5-2.6v-4.2c0-1.4,1.1-2.6,2.5-2.6l0,0c1.4,0,2.5,1.2,2.5,2.6v4.2
			C108.5,17.5,107.4,18.7,106,18.7z"/>
		<path class="st1" d="M122.7,18.7L122.7,18.7c-1.4,0-2.5-1.2-2.5-2.6v-4.2c0-1.4,1.1-2.6,2.5-2.6l0,0c1.4,0,2.5,1.2,2.5,2.6v4.2
			C125.2,17.5,124,18.7,122.7,18.7z"/>
		<rect x="109.7" y="12.1" class="st7" width="9.5" height="3.9"/>
		<path class="st7" d="M44.3,192.8l-7.2-7.3c-1.4-1.4-1.4-3.7,0-5.1l11.8-12c1.4-1.4,3.7-1.4,5.1,0l7.2,7.3c1.4,1.4,1.4,3.7,0,5.1
			l-11.8,12C48,194.2,45.7,194.2,44.3,192.8z"/>
		<ellipse class="st8" cx="44.1" cy="185.7" rx="3.6" ry="3.7"/>
		<path class="st1" d="M191.2,185.4l-7.3,7.2c-1.4,1.4-3.7,1.3-5.1-0.1l-11.5-12.3c-1.4-1.5-1.3-3.8,0.1-5.1l7.3-7.2
			c1.4-1.4,3.7-1.3,5.1,0.1l11.5,12.2C192.6,181.8,192.6,184.1,191.2,185.4z"/>
		<ellipse class="st8" cx="184.4" cy="185.2" rx="3.6" ry="3.7"/>
	</g>
	<g>
		<g class="st9">
			<path class="st10" d="M236.7,56.2h1.4v23.3h32.5V56.2h1.4v51.4h-1.4V80.8h-32.5v26.8h-1.4V56.2z"/>
			<path class="st10" d="M313.3,81.1h-26.8v25.3h29.2l-0.3,1.3h-30.3V56.2h29.6v1.3h-28.2v22.2h26.8V81.1z"/>
			<path class="st10" d="M324.2,56.2h1.4v50.1h27.9l-0.5,1.3h-28.8V56.2z"/>
			<path class="st10" d="M359.8,56.2h14.9c14.9,0,23.3,10.7,23.3,24.6c0,15.6-8.2,26.8-23.5,26.8h-14.8V56.2z M361.2,106.3h13.5
				c13.2,0,21.8-9.3,21.8-25.4c0-13.4-7.8-23.4-22.1-23.4h-13.3V106.3z"/>
		</g>
	</g>
	<g>
		<g class="st9">
			<path class="st10" d="M281.9,128.9h1.4V179h27.9l-0.5,1.3h-28.8V128.9z"/>
			<path class="st10" d="M321.5,160.3l-7.4,20h-1.5l18.9-51.4h1.5l19.7,51.4h-1.5l-7.6-20H321.5z M343,159
				c-6.2-16.3-9.7-26-10.7-28.5h-0.1c-0.5,1.9-5.3,15.2-10.2,28.5H343z"/>
			<path class="st10" d="M361.1,128.9H377c8.8,0,14,4.6,14,12.4c0,6.3-3.6,10.4-9,11.4c4.6,0.9,11,4.4,11,13.2
				c0,9.4-6.6,14.4-16.3,14.4h-15.5V128.9z M377.3,152.1c7.4,0,12.3-3.6,12.3-10.7c0-7.8-5.4-11.2-13.2-11.2h-13.9v21.9H377.3z
				 M362.5,179h13.9c7.8,0,15.1-3.1,15.1-13c0-8.3-6.2-12.6-14.4-12.6h-14.6V179z"/>
		</g>
	</g>
</g>
</svg>
