<?xml version="1.0" encoding="utf-8"?>
<!-- Generator: Adobe Illustrator 26.0.3, SVG Export Plug-In . SVG Version: 6.00 Build 0)  -->
<svg version="1.1" id="Layer_1" xmlns="http://www.w3.org/2000/svg" xmlns:xlink="http://www.w3.org/1999/xlink" x="0px" y="0px"
	 viewBox="0 0 280.1 277.8" style="enable-background:new 0 0 280.1 277.8;" xml:space="preserve">
<style type="text/css">
	.st0{fill:none;stroke:#3F616F;stroke-width:14.8003;stroke-miterlimit:10;}
	.st1{fill:#D0E1CA;stroke:#D0E1CA;stroke-width:1.2816;stroke-miterlimit:10;}
	.st2{fill:none;stroke:#3F616F;stroke-width:11.1002;stroke-linecap:round;stroke-miterlimit:10;}
	.st3{fill:none;stroke:#3F616F;stroke-width:7.4001;stroke-linecap:round;stroke-miterlimit:10;}
	.st4{fill:#D0E1CA;stroke:#3F616F;stroke-width:11.1002;stroke-miterlimit:10;}
	.st5{fill:none;stroke:#3F616F;stroke-width:5.9201;stroke-miterlimit:10;}
	.st6{fill:none;stroke:#3F616F;stroke-width:5.9201;stroke-linecap:round;stroke-miterlimit:10;}
	.st7{fill:#D0E1CA;}
	.st8{fill:#3F616F;stroke:#D0E1CA;stroke-width:1.2816;stroke-miterlimit:10;}
</style>
<g id="HeldLabLogo_x5F_nobacteria_00000083771510770847977660000006311355961560605094_">
	<g>
		<ellipse class="st0" cx="142" cy="140.2" rx="104.6" ry="106.6"/>
		<ellipse class="st0" cx="142" cy="140.2" rx="122.3" ry="124.6"/>
		<ellipse class="st1" cx="142.3" cy="264.8" rx="4.5" ry="4.6"/>
		<ellipse class="st1" cx="264.5" cy="140" rx="4.5" ry="4.6"/>
		<ellipse class="st1" cx="19.8" cy="140.4" rx="4.5" ry="4.6"/>
		<ellipse class="st1" cx="228.5" cy="51.9" rx="4.5" ry="4.6"/>
		<ellipse class="st1" cx="55.5" cy="52.2" rx="4.5" ry="4.6"/>
		<line class="st2" x1="166.4" y1="165.6" x2="215.7" y2="215.8"/>
		<path class="st3" d="M37.3,140.2c5.3-0.2,23.8-4.7,23.8-4.7s19.6,5.1,26.2,4.7c7.2-0.4,27-8.9,27-8.9s20.3,9,27.6,8.9
			c7-0.2,27.3-7,27.3-7s21,5.2,28.3,5.2c7.3,0,27.1-5.2,27.1-5.2s17.7,3.9,22,7"/>
		<ellipse class="st4" cx="142" cy="140.2" rx="40.4" ry="41.1"/>
		<ellipse class="st5" cx="143.9" cy="142.5" rx="11.8" ry="7.1"/>
		<line class="st6" x1="135.1" y1="137.8" x2="129.1" y2="128.5"/>
		<line class="st6" x1="153.8" y1="138" x2="160.8" y2="128.3"/>
		<line class="st6" x1="153.3" y1="147" x2="160.9" y2="155.1"/>
		<line class="st6" x1="144.4" y1="149.6" x2="144.4" y2="160.4"/>
		<line class="st6" x1="135.6" y1="147.6" x2="128" y2="155"/>
		<line class="st6" x1="144" y1="135.4" x2="144" y2="123.8"/>
		<line class="st6" x1="155.8" y1="142.5" x2="165.6" y2="142.5"/>
		<line class="st6" x1="131.9" y1="142.5" x2="114.3" y2="142.5"/>
		<path class="st1" d="M123.1,38.7h-1.8c-2.4,0-4.4-2-4.4-4.5V14.7c0-2.5,2-4.5,4.4-4.5h1.8c2.4,0,4.4,2,4.4,4.5v19.4
			C127.5,36.6,125.5,38.7,123.1,38.7z"/>
		<path class="st1" d="M164.7,38.7h-1.8c-2.4,0-4.4-2-4.4-4.5V14.7c0-2.5,2-4.5,4.4-4.5h1.8c2.4,0,4.4,2,4.4,4.5v19.4
			C169.1,36.6,167.1,38.7,164.7,38.7z"/>
		<path class="st7" d="M132.1,22.4L132.1,22.4c-1.7,0-3.1-1.4-3.1-3.2v-5.2c0-1.7,1.4-3.2,3.1-3.2l0,0c1.7,0,3.1,1.4,3.1,3.2v5.2
			C135.2,21,133.8,22.4,132.1,22.4z"/>
		<path class="st1" d="M152.6,22.4L152.6,22.4c-1.7,0-3.1-1.4-3.1-3.2v-5.2c0-1.7,1.4-3.2,3.1-3.2l0,0c1.7,0,3.1,1.4,3.1,3.2v5.2
			C155.7,21,154.3,22.4,152.6,22.4z"/>
		<rect x="136.7" y="14.4" class="st7" width="11.7" height="4.9"/>
		<path class="st7" d="M56,237.2l-8.9-9c-1.7-1.8-1.7-4.6,0-6.3L61.7,207c1.7-1.8,4.5-1.8,6.2,0l8.9,9c1.7,1.8,1.7,4.6,0,6.3
			l-14.5,14.8C60.5,238.9,57.8,238.9,56,237.2z"/>
		<ellipse class="st8" cx="55.8" cy="228.4" rx="4.5" ry="4.6"/>
		<path class="st1" d="M237.1,228.1l-9,8.9c-1.8,1.7-4.5,1.6-6.2-0.1l-14.2-15.1c-1.7-1.8-1.6-4.6,0.1-6.3l9-8.9
			c1.8-1.7,4.5-1.6,6.2,0.1l14.2,15.1C238.9,223.5,238.8,226.4,237.1,228.1z"/>
		<ellipse class="st8" cx="228.7" cy="227.9" rx="4.5" ry="4.6"/>
	</g>
</g>
</svg>
