<?xml version="1.0" encoding="utf-8"?>
<!-- Generator: Adobe Illustrator 26.0.3, SVG Export Plug-In . SVG Version: 6.00 Build 0)  -->
<svg version="1.1" id="Layer_1" xmlns="http://www.w3.org/2000/svg" xmlns:xlink="http://www.w3.org/1999/xlink" x="0px" y="0px"
	 viewBox="0 0 231 230.3" style="enable-background:new 0 0 231 230.3;" xml:space="preserve">
<style type="text/css">
	.st0{fill:none;stroke:#C3D7DD;stroke-width:12.0014;stroke-miterlimit:10;}
	.st1{fill:#F4F8F9;stroke:#F4F8F9;stroke-width:1.0393;stroke-miterlimit:10;}
	.st2{fill:none;stroke:#C3D7DD;stroke-width:9.0011;stroke-linecap:round;stroke-miterlimit:10;}
	.st3{fill:none;stroke:#C3D7DD;stroke-width:6.0007;stroke-linecap:round;stroke-miterlimit:10;}
	.st4{fill:#F4F8F9;stroke:#C3D7DD;stroke-width:9.0011;stroke-miterlimit:10;}
	.st5{fill:none;stroke:#C3D7DD;stroke-width:4.8006;stroke-miterlimit:10;}
	.st6{fill:none;stroke:#C3D7DD;stroke-width:4.8006;stroke-linecap:round;stroke-miterlimit:10;}
	.st7{fill:#F4F8F9;}
	.st8{fill:#C3D7DD;stroke:#F4F8F9;stroke-width:1.0393;stroke-miterlimit:10;}
</style>
<g>
	<g>
		<ellipse class="st0" cx="114" cy="114.2" rx="84.8" ry="86.4"/>
		<ellipse class="st0" cx="114" cy="114.2" rx="99.2" ry="101.1"/>
		<ellipse class="st1" cx="114.3" cy="215.2" rx="3.6" ry="3.7"/>
		<ellipse class="st1" cx="213.3" cy="114" rx="3.6" ry="3.7"/>
		<ellipse class="st1" cx="15" cy="114.2" rx="3.6" ry="3.7"/>
		<ellipse class="st1" cx="184.2" cy="42.6" rx="3.6" ry="3.7"/>
		<ellipse class="st1" cx="43.9" cy="42.8" rx="3.6" ry="3.7"/>
		<line class="st2" x1="133.9" y1="134.8" x2="173.8" y2="175.4"/>
		<path class="st3" d="M29.2,114.2c4.3-0.2,19.3-3.8,19.3-3.8s15.9,4.1,21.3,3.8c5.9-0.3,21.9-7.2,21.9-7.2s16.4,7.3,22.4,7.2
			c5.6-0.2,22.1-5.7,22.1-5.7s17.1,4.2,22.9,4.2c5.9,0,21.9-4.2,21.9-4.2s14.3,3.2,17.8,5.7"/>
		<ellipse class="st4" cx="114" cy="114.2" rx="32.7" ry="33.3"/>
		<ellipse class="st5" cx="115.6" cy="116.1" rx="9.6" ry="5.8"/>
		<line class="st6" x1="108.4" y1="112.2" x2="103.6" y2="104.7"/>
		<line class="st6" x1="123.6" y1="112.4" x2="129.2" y2="104.5"/>
		<line class="st6" x1="123.2" y1="119.7" x2="129.4" y2="126.2"/>
		<line class="st6" x1="116" y1="121.8" x2="116" y2="130.6"/>
		<line class="st6" x1="108.9" y1="120.2" x2="102.7" y2="126.2"/>
		<line class="st6" x1="115.7" y1="110.2" x2="115.7" y2="100.9"/>
		<line class="st6" x1="125.2" y1="116" x2="133.2" y2="116"/>
		<line class="st6" x1="105.9" y1="116" x2="91.6" y2="116"/>
		<path class="st1" d="M98.7,31.8h-1.5c-2,0-3.6-1.6-3.6-3.6V12.4c0-2,1.6-3.6,3.6-3.6h1.5c2,0,3.6,1.6,3.6,3.6v15.7
			C102.3,30.2,100.7,31.8,98.7,31.8z"/>
		<path class="st1" d="M132.5,31.8H131c-2,0-3.6-1.6-3.6-3.6V12.4c0-2,1.6-3.6,3.6-3.6h1.5c2,0,3.6,1.6,3.6,3.6v15.7
			C136,30.2,134.4,31.8,132.5,31.8z"/>
		<path class="st7" d="M106,18.7L106,18.7c-1.4,0-2.5-1.2-2.5-2.6v-4.2c0-1.4,1.1-2.6,2.5-2.6l0,0c1.4,0,2.5,1.2,2.5,2.6v4.2
			C108.5,17.5,107.4,18.7,106,18.7z"/>
		<path class="st1" d="M122.7,18.7L122.7,18.7c-1.4,0-2.5-1.2-2.5-2.6v-4.2c0-1.4,1.1-2.6,2.5-2.6l0,0c1.4,0,2.5,1.2,2.5,2.6v4.2
			C125.2,17.5,124,18.7,122.7,18.7z"/>
		<rect x="109.7" y="12.1" class="st7" width="9.5" height="3.9"/>
		<path class="st7" d="M44.3,192.8l-7.2-7.3c-1.4-1.4-1.4-3.7,0-5.1l11.8-12c1.4-1.4,3.7-1.4,5.1,0l7.2,7.3c1.4,1.4,1.4,3.7,0,5.1
			l-11.8,12C48,194.2,45.7,194.2,44.3,192.8z"/>
		<ellipse class="st8" cx="44.1" cy="185.7" rx="3.6" ry="3.7"/>
		<path class="st1" d="M191.2,185.4l-7.3,7.2c-1.4,1.4-3.7,1.3-5.1-0.1l-11.5-12.3c-1.4-1.5-1.3-3.8,0.1-5.1l7.3-7.2
			c1.4-1.4,3.7-1.3,5.1,0.1l11.5,12.2C192.6,181.8,192.6,184.1,191.2,185.4z"/>
		<ellipse class="st8" cx="184.4" cy="185.2" rx="3.6" ry="3.7"/>
	</g>
</g>
</svg>
